<svg width="32" height="40" fill="none" xmlns="http://www.w3.org/2000/svg"><path d="M27.937 11.127V3.55a.366.366 0 00-.364-.364.366.366 0 00-.363.364v1.396c-2.817 2.706-6.265 3.87-9.838 4.442V6.89a2.738 2.738 0 00-2.734-2.735H11.53a3.43 3.43 0 00-3.404-3.06A3.429 3.429 0 004.703 4.52a3.4 3.4 0 00.752 2.138 3.387 3.387 0 002.671 1.285c1.047 0 2.022-.47 2.667-1.285a3.344 3.344 0 00.722-1.775h3.123c1.105 0 2.007.902 2.007 2.008v2.603c-1.304.18-2.618.291-3.923.383a1.515 1.515 0 00-1.372-.882H5.387c-.834 0-1.513.679-1.513 1.513v.087a4.371 4.371 0 00-3.055 4.17 4.36 4.36 0 003.055 4.17v.087c0 .775.591 1.415 1.348 1.498v8.058c0 1.227.999 2.225 2.22 2.225a2.232 2.232 0 002.226-2.225v-4.402c0-.165.082-.32.213-.417l.582-.412a1.25 1.25 0 00.524-1.009v-1.794h.368a1.51 1.51 0 001.372-.882c.388.024.771.053 1.16.087v5.61a2.737 2.737 0 002.734 2.734h1.255a3.43 3.43 0 00.694 1.527 3.387 3.387 0 002.671 1.285c1.047 0 2.022-.47 2.667-1.285a3.414 3.414 0 00.756-2.138 3.429 3.429 0 00-3.423-3.423 3.427 3.427 0 00-3.418 3.307h-1.202a2.011 2.011 0 01-2.008-2.007v-5.552c4.534.417 9.067 1.382 12.602 4.78v1.397c0 .199.164.364.363.364a.366.366 0 00.364-.364v-7.578c1.818-.213 3.244-1.775 3.244-3.641 0-1.867-1.43-3.423-3.249-3.637zM8.127 7.215a2.67 2.67 0 01-1.902-.786 2.66 2.66 0 011.901-.785c.722 0 1.401.28 1.9.785-.499.5-1.178.786-1.9.786zM8.12 4.267a.536.536 0 11.005-1.071.536.536 0 01-.005 1.07zm2.347 1.58a3.374 3.374 0 00-1.978-.911c.518-.155.902-.635.902-1.203 0-.698-.568-1.265-1.266-1.265a1.261 1.261 0 00-.364 2.468 3.374 3.374 0 00-1.978.911 2.696 2.696 0 114.684 0zm-6.599 12.32a3.645 3.645 0 01-2.327-3.403 3.65 3.65 0 012.327-3.404v6.807zm6.386 4.165c0 .165-.083.32-.214.417l-.582.417a1.248 1.248 0 00-.518 1.009v4.402a1.5 1.5 0 01-1.499 1.498 1.492 1.492 0 01-1.493-1.498v-8.039h4.31v1.794h-.005zm1.88-3.306a.785.785 0 01-.785.785H5.387a.785.785 0 01-.786-.785v-8.524c0-.437.354-.786.786-.786h5.963c.432 0 .786.354.786.786v8.524zm9.101 11.151a2.669 2.669 0 01-1.9-.785 2.68 2.68 0 011.9-.786 2.66 2.66 0 011.901.785 2.66 2.66 0 01-1.9.786zm-.538-3.418a.536.536 0 111.072-.005.536.536 0 01-1.072.005zm.538-1.974a2.696 2.696 0 012.696 2.696c0 .475-.121.931-.354 1.329a3.346 3.346 0 00-1.852-.892c.451-.194.771-.64.771-1.16 0-.697-.567-1.265-1.265-1.265a1.262 1.262 0 00-.49 2.424 3.396 3.396 0 00-1.847.893 2.631 2.631 0 01-.354-1.329 2.7 2.7 0 012.695-2.696zm5.974-13.318v12.126c-4.102-3.608-9.31-4.31-14.347-4.655v-8.34c5.038-.343 10.245-1.046 14.347-4.654v5.523zm.727 6.206v-5.814a2.957 2.957 0 012.516 2.91 2.948 2.948 0 01-2.516 2.904z" fill="#000"/><path d="M6.599 10.958c-.601 0-1.091.49-1.091 1.09a1.092 1.092 0 002.182.001c0-.602-.49-1.091-1.091-1.091zm0 1.45a.36.36 0 01-.364-.364.363.363 0 11.364.363z" fill="#000"/></svg>