<svg width="72" height="72" fill="none" xmlns="http://www.w3.org/2000/svg"><path d="M72 36c0 19.883-16.117 36-36 36-10.48 0-19.917-4.479-26.495-11.627a36.037 36.037 0 01-4.56-6.15A35.846 35.846 0 010 36C0 16.117 16.117 0 36 0c6.65 0 12.88 1.803 18.224 4.947a35.952 35.952 0 016.148 4.56C67.52 16.081 72 25.518 72 36z" fill="#F0CD00"/><path d="M72 36c0 19.434-15.397 35.272-34.66 35.975C18.077 71.272 2.68 55.435 2.68 36 2.68 16.566 18.077.728 37.34.025 56.603.728 72 16.565 72 36z" fill="#FFDE50"/><path d="M60.372 9.506L9.505 60.373a36.037 36.037 0 01-4.56-6.15l49.28-49.275a36.166 36.166 0 016.148 4.56zm9.144 13.333L22.837 69.518a35.976 35.976 0 01-9.115-5.237l50.56-50.559a35.914 35.914 0 015.234 9.117z" fill="#FFEA94"/><path d="M63.975 36c0 15.45-12.526 27.974-27.975 27.974a27.831 27.831 0 01-14.671-4.152 28.03 28.03 0 01-5.11-4.043 27.926 27.926 0 01-6.248-9.51 27.839 27.839 0 01-1.941-9.926c-.003-.115-.003-.23-.003-.344C8.027 20.549 20.55 8.024 36 8.024c.116 0 .231 0 .346.003a27.862 27.862 0 0119.435 8.19A27.884 27.884 0 0163.975 36z" fill="#FAA300"/><path d="M55.779 16.22l-39.56 39.559a27.926 27.926 0 01-6.248-9.51 27.839 27.839 0 01-1.941-9.926c-.003-.115-.003-.23-.003-.344C8.027 20.549 20.55 8.024 36 8.024c.116 0 .231 0 .346.003a27.86 27.86 0 0115.77 5.102 28.389 28.389 0 013.662 3.09z" fill="#FFBD00"/><path d="M63.973 36c0 15.45-12.525 27.975-27.974 27.975-.53 0-1.056-.014-1.58-.044C49.134 63.111 60.813 50.919 60.813 36S49.134 8.889 34.42 8.07A28.57 28.57 0 0136 8.027C51.449 8.025 63.973 20.55 63.973 36z" fill="#F68E00"/><path d="M50.833 37.243c0 1.6.079 3.098-.03 4.583-.063.858-.617 1.527-1.417 1.984a2355.01 2355.01 0 00-12.694 7.316c-.899.52-1.778.423-2.62-.048-1.699-.95-3.367-1.952-5.057-2.918-.461-.263-.693-.609-.686-1.153.018-1.36.007-2.721.005-4.083 0-.718.262-.836.872-.45.899.57 1.836 1.078 2.751 1.623.612.364.994.27.997-.503.01-2.354.013-4.707-.006-7.061-.005-.727-.435-1.243-1.035-1.595-1.802-1.061-3.604-2.127-5.435-3.14-.942-.52-1.45-.18-1.452.917-.012 3.971-.002 7.942-.012 11.915-.001.315.154.73-.161.924-.33.204-.598-.15-.874-.306-.767-.434-1.508-.922-2.305-1.296-1.177-.552-1.712-1.496-1.72-2.72-.025-4.855-.016-9.71-.005-14.562.003-.986.425-1.761 1.306-2.27a335.206 335.206 0 005.325-3.114c.344-.206.562-.174.887.021 1.198.716 2.417 1.396 3.632 2.08.622.35.744.687.035 1.086-.863.485-1.696 1.032-2.575 1.486-.849.44-.701.816-.008 1.218 2.415 1.398 4.795 2.865 7.265 4.159 1.451.76 2.108 1.74 2.046 3.397-.096 2.607-.035 5.221-.021 7.831.008 1.61.402 1.834 1.788 1.041 3.571-2.04 7.137-4.088 10.706-6.131.12-.07.25-.117.498-.23z" fill="#F68E00"/><path d="M37.027 30.2c1.64-.946 3.012-1.706 4.352-2.517 1.49-.9 1.468-1.395-.035-2.262-3.337-1.925-6.657-3.877-10.02-5.757-.882-.493-.657-.734.017-1.113.96-.538 1.892-1.126 2.859-1.65.838-.452 1.703-.406 2.527.067a4751.17 4751.17 0 0112.782 7.355c.859.496 1.32 1.282 1.334 2.266.03 1.983-.006 3.969.02 5.952.007.507-.183.835-.602 1.074-1.179.674-2.36 1.343-3.53 2.03-.775.455-.97.106-.958-.63.016-.881.006-1.763.003-2.645-.004-1.321-.05-1.36-1.248-.694a144.617 144.617 0 00-4.093 2.374c-.742.445-1.2.43-1.043-.587.264-1.708-.639-2.672-2.365-3.264z" fill="#F68E00"/><path d="M52.837 37.243c0 1.6.079 3.098-.03 4.583-.063.858-.617 1.527-1.417 1.984a2355.01 2355.01 0 00-12.694 7.316c-.899.52-1.778.423-2.62-.048-1.699-.95-3.367-1.952-5.057-2.918-.461-.263-.693-.609-.686-1.153.018-1.36.007-2.721.005-4.083-.001-.718.262-.836.872-.45.899.57 1.835 1.078 2.75 1.623.613.364.995.27.998-.503.01-2.354.013-4.707-.006-7.061-.005-.727-.436-1.243-1.035-1.595-1.803-1.061-3.604-2.127-5.435-3.14-.942-.52-1.45-.18-1.453.917-.01 3.971 0 7.942-.01 11.915-.002.315.153.73-.162.924-.33.204-.598-.15-.874-.306-.768-.434-1.509-.922-2.305-1.296-1.177-.552-1.712-1.496-1.72-2.72-.025-4.855-.016-9.71-.005-14.562.003-.986.425-1.761 1.306-2.27a335.206 335.206 0 005.324-3.114c.345-.206.563-.174.888.021 1.198.716 2.417 1.396 3.632 2.08.622.35.744.687.035 1.086-.863.485-1.696 1.032-2.575 1.486-.849.44-.701.816-.008 1.218 2.414 1.398 4.795 2.865 7.265 4.159 1.451.76 2.108 1.74 2.046 3.397-.096 2.607-.035 5.221-.021 7.831.008 1.61.402 1.834 1.788 1.041 3.57-2.04 7.137-4.088 10.706-6.131.12-.07.25-.117.498-.23z" fill="#FFEA94"/><path d="M39.03 30.2c1.639-.946 3.011-1.706 4.351-2.517 1.49-.9 1.468-1.395-.035-2.262-3.337-1.925-6.657-3.877-10.02-5.757-.881-.493-.656-.734.018-1.113.959-.538 1.891-1.126 2.858-1.65.839-.452 1.704-.406 2.528.067 4.263 2.447 8.526 4.895 12.78 7.355.86.496 1.321 1.282 1.336 2.266.028 1.983-.006 3.969.02 5.952.006.507-.184.835-.603 1.074-1.178.674-2.36 1.343-3.53 2.03-.774.455-.97.106-.957-.63.015-.881.006-1.763.003-2.645-.005-1.321-.05-1.36-1.249-.694-1.378.768-2.74 1.562-4.092 2.374-.743.445-1.201.43-1.044-.587.266-1.708-.637-2.672-2.365-3.264z" fill="#FFEA94"/></svg>