<svg width="750" height="183" viewBox="0 0 750 183" fill="none" xmlns="http://www.w3.org/2000/svg">
<g clip-path="url(#clip0_306_187)">
<path fill-rule="evenodd" clip-rule="evenodd" d="M87.6515 180.685C83.1364 183.27 77.7256 182.906 73.6858 180.194L44.0177 163.139V135.819L44.036 135.837C44.0177 134.053 45.0231 133.544 46.7597 134.526L65.1308 145.083C67.3427 146.357 67.9459 145.192 67.9459 143.263V103.457H67.8728C67.8728 101.018 67.2878 98.7425 64.9115 97.0316L32.4466 78.3569C28.8821 76.646 25.9756 78.3751 26.2681 82.3612L26.2498 82.343V106.624V122.75V152.928L6.58078 141.607C2.30332 139.15 -0.0547672 134.69 7.20851e-05 130.103V52.329C-0.0730469 47.3782 2.46784 43.1555 6.54422 40.8075L37.0349 23.2795L60.8899 37.0034C62.3158 37.8224 62.1878 38.9327 60.7254 39.8974L42.2629 50.5088C41.0016 51.2369 40.965 53.057 42.4639 53.9307L87.5966 79.8858C93.6838 83.3805 94.1408 88.5315 94.1408 94.447V102.492V139.386C94.1408 143.045 96.901 145.101 99.6796 143.5L162.123 107.643V130.285C162.123 135.109 159.473 139.332 155.561 141.589L87.6515 180.685Z" fill="url(#paint0_linear_306_187)"/>
<path fill-rule="evenodd" clip-rule="evenodd" d="M54.8213 13.0686L74.4903 1.76557C79.0054 -0.819029 84.4162 -0.455002 88.456 2.257L154.775 40.3889C157.06 41.4992 159.052 43.2647 160.405 45.6127C161.429 47.3964 161.995 49.3076 162.142 51.2187V52.056V52.329V87.2028L138.378 100.836V100.817C136.769 101.6 135.929 101.036 135.892 99.143V77.9566C135.892 75.827 134.941 75.3719 133.552 76.1728L102.55 93.992V86.0744C102.55 83.7628 102.55 77.8837 97.6325 75.0807L90.1743 70.8398L117.082 55.3686C119.824 53.1663 119.586 50.072 116.168 48.4339L116.26 48.3975L94.4152 35.8386L94.4335 35.8204L54.8213 13.0686Z" fill="url(#paint1_linear_306_187)"/>
<path d="M243.504 63.0134C241.11 58.4631 237.837 54.9502 233.706 52.4748C229.575 49.9994 224.841 48.7617 219.521 48.7617C214.732 48.7617 210.436 49.6536 206.652 51.4373C203.069 53.13 199.925 55.2414 197.256 57.826L195.739 50.1996H181.481V134.399H198.079V101.437C200.145 103.675 202.704 105.459 205.793 106.751C209.193 108.189 212.666 108.899 216.249 108.899C222.263 108.899 227.583 107.752 232.189 105.459C236.814 103.147 240.451 99.7802 243.102 95.3026C245.771 90.8433 247.087 85.4739 247.087 79.2308C247.087 72.9695 245.899 67.5819 243.504 63.0134ZM227.82 88.0039C226.212 90.4793 224.109 92.4086 221.55 93.7919C218.991 95.1934 216.121 95.8669 212.995 95.8669C209.339 95.8669 206.159 94.9204 203.453 93.0093C200.748 91.0981 198.956 88.5499 198.097 85.3283V72.8421C199.578 69.6387 201.644 67.1269 204.294 65.3614C206.945 63.5776 210.235 62.6858 214.165 62.6858C217.126 62.6858 219.832 63.3956 222.263 64.8335C224.694 66.2532 226.632 68.2372 228.076 70.749C229.502 73.2608 230.233 76.173 230.233 79.4674C230.233 82.6891 229.429 85.5285 227.82 88.0039Z" fill="#F9BE00"/>
<path d="M250.87 78.8304C250.87 73.0969 252.223 67.9823 254.928 63.4684C257.634 58.9544 261.399 55.4052 266.225 52.8024C271.069 50.1996 276.608 48.9073 282.896 48.9073C289.258 48.9073 294.796 50.1996 299.494 52.8024C304.192 55.4052 307.812 58.9544 310.334 63.4684C312.857 67.9823 314.118 73.0969 314.118 78.8304C314.118 84.4728 312.838 89.5692 310.261 94.1195C307.684 98.6699 304.082 102.274 299.421 104.913C294.76 107.552 289.166 108.881 282.622 108.881C276.517 108.881 271.069 107.68 266.28 105.295C261.491 102.911 257.725 99.4525 254.983 94.9568C252.259 90.461 250.87 85.0734 250.87 78.8304ZM267.614 78.9578C267.614 81.9974 268.272 84.764 269.57 87.294C270.886 89.8058 272.641 91.808 274.871 93.2823C277.102 94.7566 279.606 95.5028 282.384 95.5028C286.918 95.5028 290.555 93.9193 293.297 90.7523C296.039 87.5852 297.41 83.6537 297.41 78.976C297.41 74.2072 296.039 70.2393 293.297 67.0723C290.555 63.9052 286.918 62.3217 282.384 62.3217C279.588 62.3217 277.083 63.068 274.871 64.5423C272.641 66.0166 270.886 68.0187 269.57 70.5305C268.254 73.0241 267.614 75.8453 267.614 78.9578Z" fill="#F9BE00"/>
<path d="M318.049 78.8304C318.049 73.0969 319.402 67.9823 322.107 63.4684C324.813 58.9544 328.578 55.4052 333.404 52.8024C338.248 50.1996 343.787 48.9073 350.075 48.9073C356.437 48.9073 361.976 50.1996 366.673 52.8024C371.371 55.4052 374.991 58.9544 377.513 63.4684C380.036 67.9823 381.297 73.0969 381.297 78.8304C381.297 84.4728 380.018 89.5692 377.44 94.1195C374.863 98.6699 371.262 102.274 366.6 104.913C361.939 107.552 356.345 108.881 349.801 108.881C343.696 108.881 338.248 107.68 333.459 105.295C328.67 102.911 324.904 99.4525 322.162 94.9568C319.42 90.461 318.049 85.0734 318.049 78.8304ZM334.794 78.9578C334.794 81.9974 335.452 84.764 336.75 87.294C338.066 89.8058 339.821 91.808 342.051 93.2823C344.281 94.7566 346.785 95.5028 349.564 95.5028C354.097 95.5028 357.735 93.9193 360.477 90.7523C363.219 87.5852 364.59 83.6537 364.59 78.976C364.59 74.2072 363.219 70.2393 360.477 67.0723C357.735 63.9052 354.097 62.3217 349.564 62.3217C346.767 62.3217 344.262 63.068 342.051 64.5423C339.821 66.0166 338.066 68.0187 336.75 70.5305C335.433 73.0241 334.794 75.8453 334.794 78.9578Z" fill="#F9BE00"/>
<path d="M389.687 5.29663H406.285V107.461H389.687V5.29663Z" fill="#F9BE00"/>
<path d="M463.647 51.3645L462.532 57.9534C460.741 55.6236 458.401 53.5305 455.476 51.6921C452.387 49.7446 448.091 48.7617 442.607 48.7617C437.726 48.7617 433.138 50.0358 428.879 52.5476C424.62 55.0594 421.183 58.5905 418.624 63.159C416.047 67.7094 414.767 73.1516 414.767 79.4856C414.767 86.1656 416.01 91.6806 418.496 96.0125C420.982 100.344 424.364 103.584 428.623 105.714C432.882 107.843 437.653 108.899 442.881 108.899C446.19 108.899 449.096 108.426 451.637 107.479C454.16 106.515 456.299 105.368 458.035 104.021C459.772 102.674 461.125 101.437 462.093 100.308C462.24 100.144 462.368 99.9986 462.477 99.853V107.461H479.075V51.3645H463.647ZM456.847 92.8819C454.306 94.611 451.235 95.4847 447.561 95.4847C444.691 95.4847 442.04 94.7384 439.591 93.2641C437.16 91.7898 435.222 89.7694 433.778 87.2212C432.352 84.673 431.621 81.8154 431.621 78.703C431.621 75.4996 432.316 72.6601 433.705 70.1847C435.094 67.7094 436.977 65.7618 439.317 64.3239C441.675 62.9042 444.252 62.1761 447.031 62.1761C450.687 62.1761 453.904 63.1226 456.701 65.0338C459.479 66.9449 461.417 69.4203 462.459 72.4417V85.4557C461.253 88.6774 459.388 91.1527 456.847 92.8819Z" fill="#F9BE00"/>
<path d="M553.894 63.0134C551.499 58.4631 548.227 54.9502 544.096 52.4748C539.965 49.9994 535.231 48.7617 529.911 48.7617C525.122 48.7617 520.826 49.6536 517.042 51.4373C513.459 53.13 510.333 55.2414 507.646 57.826L506.129 50.1996H491.889V134.399H508.487V101.418C510.553 103.675 513.13 105.441 516.201 106.733C519.601 108.171 523.074 108.881 526.657 108.881C532.671 108.881 537.991 107.734 542.597 105.441C547.222 103.129 550.841 99.762 553.51 95.2844C556.161 90.8251 557.495 85.4557 557.495 79.2126C557.495 72.9696 556.289 67.5819 553.894 63.0134ZM538.21 88.0039C536.601 90.4793 534.499 92.4086 531.94 93.7919C529.363 95.1934 526.511 95.8669 523.385 95.8669C519.729 95.8669 516.549 94.9204 513.843 93.0093C511.138 91.0981 509.365 88.5499 508.487 85.3283V72.8421C509.968 69.6387 512.033 67.1269 514.684 65.3614C517.353 63.5776 520.643 62.6858 524.555 62.6858C527.516 62.6858 530.222 63.3956 532.653 64.8335C535.084 66.2532 537.04 68.2372 538.466 70.749C539.91 73.2608 540.623 76.173 540.623 79.4674C540.623 82.6891 539.819 85.5285 538.21 88.0039Z" fill="#F9BE00"/>
<path d="M610.16 51.3645L609.045 57.9534C607.253 55.6236 604.913 53.5305 602.007 51.6921C598.918 49.7446 594.622 48.7617 589.138 48.7617C584.257 48.7617 579.687 50.0358 575.41 52.5476C571.132 55.0594 567.714 58.5905 565.155 63.159C562.577 67.7094 561.298 73.1516 561.298 79.4856C561.298 86.1656 562.541 91.6806 565.027 96.0125C567.513 100.344 570.876 103.584 575.154 105.714C579.413 107.843 584.166 108.899 589.394 108.899C592.702 108.899 595.627 108.426 598.15 107.479C600.691 106.515 602.811 105.368 604.566 104.021C606.303 102.674 607.655 101.437 608.606 100.308C608.752 100.144 608.88 99.9986 608.99 99.853V107.461H625.588V51.3645H610.16ZM603.36 92.8819C600.837 94.611 597.748 95.4847 594.092 95.4847C591.222 95.4847 588.553 94.7384 586.122 93.2641C583.672 91.7898 581.735 89.7694 580.309 87.2212C578.865 84.673 578.152 81.8154 578.152 78.703C578.152 75.4996 578.846 72.6601 580.236 70.1847C581.625 67.7094 583.508 65.7618 585.848 64.3239C588.206 62.9042 590.765 62.1761 593.562 62.1761C597.218 62.1761 600.435 63.1226 603.232 65.0338C606.028 66.9449 607.948 69.4203 608.99 72.4417V85.4557C607.765 88.6774 605.9 91.1527 603.36 92.8819Z" fill="#F9BE00"/>
<path d="M685.709 102.383C683.187 104.385 680.098 105.968 676.423 107.133C672.767 108.298 669.111 108.899 665.437 108.899C659.167 108.899 653.647 107.734 648.912 105.386C644.16 103.038 640.485 99.6524 637.871 95.2295C635.257 90.8066 633.959 85.51 633.959 79.3579C633.959 73.2058 635.349 67.9274 638.146 63.5409C640.924 59.1544 644.617 55.8053 649.187 53.4573C653.756 51.1093 658.619 49.9445 663.755 49.9445C668.728 49.9445 673.042 50.6179 676.698 51.9648C680.354 53.3117 683.498 55.059 686.112 57.2432L678.014 67.9092C676.716 66.8717 674.961 65.8525 672.786 64.8514C670.61 63.8503 668.124 63.3589 665.328 63.3589C662.531 63.3589 660.026 64.0505 657.815 65.4338C655.584 66.8171 653.83 68.7283 652.513 71.1673C651.216 73.6062 650.558 76.3365 650.558 79.3579C650.558 82.3065 651.234 85.0185 652.587 87.4939C653.939 89.9693 655.859 91.9168 658.345 93.3548C660.831 94.7927 663.682 95.5025 666.9 95.5025C668.983 95.5025 670.921 95.1931 672.713 94.5924C674.504 93.9918 676.039 93.1181 677.356 91.9896L685.709 102.383Z" fill="#F9BE00"/>
<path d="M750 107.461H730.66L716.054 83.1257L710.278 87.5487V107.461H693.68V5.29663H710.278V70.585L737.716 50.072L747.788 58.9179L727.589 74.3163L750 107.461Z" fill="#F9BE00"/>
</g>
<defs>
<linearGradient id="paint0_linear_306_187" x1="18.1862" y1="153.802" x2="112.929" y2="58.652" gradientUnits="userSpaceOnUse">
<stop stop-color="#4B1412"/>
<stop offset="0.1982" stop-color="#4F1412"/>
<stop offset="0.3971" stop-color="#5B1413"/>
<stop offset="0.5959" stop-color="#6F1314"/>
<stop offset="0.6873" stop-color="#7B1315"/>
<stop offset="0.7217" stop-color="#7E181A"/>
<stop offset="0.7635" stop-color="#862729"/>
<stop offset="0.8092" stop-color="#934041"/>
<stop offset="0.8577" stop-color="#A56263"/>
<stop offset="0.9083" stop-color="#BC8E8F"/>
<stop offset="0.96" stop-color="#D8C4C4"/>
<stop offset="1" stop-color="#F1F2F2"/>
</linearGradient>
<linearGradient id="paint1_linear_306_187" x1="87.9228" y1="85.5853" x2="124.076" y2="22.6964" gradientUnits="userSpaceOnUse">
<stop stop-color="#FFF9DF"/>
<stop offset="0.0379" stop-color="#FFF7D8"/>
<stop offset="0.3325" stop-color="#FFEBA4"/>
<stop offset="0.5542" stop-color="#FFE483"/>
<stop offset="0.6761" stop-color="#FFE177"/>
<stop offset="0.9431" stop-color="#FEBA43"/>
<stop offset="1" stop-color="#FEB137"/>
</linearGradient>
<clipPath id="clip0_306_187">
<rect width="750" height="182.432" fill="white"/>
</clipPath>
</defs>
</svg>
