<svg width="32" height="40" viewBox="0 0 32 40" fill="none" xmlns="http://www.w3.org/2000/svg">
<path d="M27.937 11.1273V5.10546V3.5491C27.937 3.35031 27.7721 3.18546 27.5733 3.18546C27.3746 3.18546 27.2097 3.35031 27.2097 3.5491V4.94546C24.3927 7.65092 20.9455 8.81455 17.3721 9.38667V6.8897C17.3721 5.38182 16.1455 4.15516 14.6376 4.15516H11.5297C11.3455 2.43879 9.89091 1.09576 8.12606 1.09576C6.24 1.09576 4.70303 2.63273 4.70303 4.51879C4.70303 5.2994 4.9697 6.06061 5.45455 6.65698C6.10425 7.47637 7.07879 7.94182 8.12606 7.94182C9.17334 7.94182 10.1479 7.47152 10.7927 6.65698C11.2049 6.15273 11.4473 5.53213 11.5152 4.88243H14.6376C15.743 4.88243 16.6449 5.78425 16.6449 6.8897V9.49334C15.3406 9.67273 14.0267 9.78425 12.7224 9.87637C12.48 9.35758 11.9612 8.99395 11.3503 8.99395H5.38667C4.55273 8.99395 3.87394 9.67273 3.87394 10.5067V10.5939C2.06546 11.1661 0.819397 12.8436 0.819397 14.7636C0.819397 16.6885 2.06061 18.3612 3.87394 18.9333V19.0206C3.87394 19.7964 4.46546 20.4364 5.22182 20.5188V28.577C5.22182 29.8036 6.22061 30.8024 7.44243 30.8024C8.66425 30.8024 9.66788 29.8036 9.66788 28.577V24.1746C9.66788 24.0097 9.75031 23.8546 9.88122 23.7576L10.463 23.3455C10.7879 23.1127 10.9867 22.7346 10.9867 22.337V20.543H11.3552C11.9661 20.543 12.4897 20.1794 12.7273 19.6606C13.1152 19.6849 13.4982 19.7139 13.8861 19.7479V25.3576C13.8861 26.8655 15.1127 28.0921 16.6206 28.0921H17.8764C17.9782 28.6497 18.2158 29.1782 18.5697 29.6194C19.2194 30.4388 20.1939 30.9043 21.2412 30.9043C22.2885 30.9043 23.263 30.4339 23.9079 29.6194C24.3927 29.0182 24.6642 28.2618 24.6642 27.4812C24.6642 25.5952 23.1273 24.0582 21.2412 24.0582C19.3939 24.0582 17.8861 25.5321 17.823 27.3649H16.6206C15.5152 27.3649 14.6133 26.463 14.6133 25.3576V19.8061C19.1467 20.223 23.68 21.1879 27.2146 24.5867V25.983C27.2146 26.1818 27.3794 26.3467 27.5782 26.3467C27.777 26.3467 27.9418 26.1818 27.9418 25.983V24.4267V18.4049C29.76 18.1915 31.1855 16.6303 31.1855 14.7636C31.1855 12.897 29.7552 11.3406 27.937 11.1273ZM8.12606 7.21455C7.40364 7.21455 6.7297 6.93334 6.22546 6.4291C6.72485 5.92486 7.40364 5.64364 8.12606 5.64364C8.84849 5.64364 9.52728 5.92486 10.0267 6.4291C9.52728 6.92849 8.84849 7.21455 8.12606 7.21455ZM8.12122 4.26667C7.82546 4.26667 7.58788 4.0291 7.58788 3.73334C7.58788 3.43758 7.82546 3.19516 8.12122 3.19516C8.41697 3.19516 8.6594 3.43758 8.6594 3.73334C8.6594 4.0291 8.42182 4.26667 8.12122 4.26667ZM10.4679 5.84728C9.92485 5.33334 9.23637 5.01334 8.4897 4.93576C9.00849 4.78061 9.39152 4.30061 9.39152 3.73334C9.39152 3.03516 8.82425 2.46789 8.12606 2.46789C7.43273 2.46789 6.86546 3.03516 6.86546 3.73334C6.86546 4.30061 7.24364 4.77576 7.76243 4.93576C7.01576 5.01334 6.32728 5.33334 5.78425 5.84728C5.55152 5.44486 5.43031 4.99395 5.43031 4.51395C5.43031 3.02546 6.63758 1.81819 8.12606 1.81819C9.61455 1.81819 10.8218 3.02546 10.8218 4.51395C10.8218 4.99395 10.7006 5.44486 10.4679 5.84728ZM3.86909 18.1673C2.47758 17.6291 1.54182 16.2861 1.54182 14.7636C1.54182 13.2412 2.47758 11.903 3.86909 11.36V18.1673ZM10.2545 22.3321C10.2545 22.497 10.1721 22.6521 10.0412 22.7491L9.4594 23.1661C9.13455 23.3988 8.94061 23.777 8.94061 24.1746V28.577C8.94061 29.4012 8.27152 30.0752 7.44243 30.0752C6.61334 30.0752 5.94909 29.4061 5.94909 28.577V20.5382H10.2594V22.3321H10.2545ZM12.1358 19.0255C12.1358 19.4618 11.7818 19.8109 11.3503 19.8109H5.38667C4.95031 19.8109 4.60122 19.457 4.60122 19.0255V18.6618V10.8655V10.5018C4.60122 10.0655 4.95515 9.71637 5.38667 9.71637H11.3503C11.7818 9.71637 12.1358 10.0703 12.1358 10.5018V19.0255ZM21.2364 30.177C20.5139 30.177 19.84 29.8958 19.3358 29.3915C19.8352 28.8921 20.5139 28.6061 21.2364 28.6061C21.9588 28.6061 22.6376 28.8873 23.137 29.3915C22.6376 29.8958 21.9588 30.177 21.2364 30.177ZM20.6982 26.7588C20.6982 26.463 20.9358 26.2206 21.2315 26.2206C21.5273 26.2206 21.7697 26.463 21.7697 26.7588C21.7697 27.0546 21.5273 27.2921 21.2315 27.2921C20.9406 27.2921 20.6982 27.0546 20.6982 26.7588ZM21.2364 24.7855C22.7249 24.7855 23.9321 25.9927 23.9321 27.4812C23.9321 27.9564 23.8109 28.4121 23.5782 28.8097C23.0691 28.3249 22.4242 28.0146 21.7261 27.9176C22.177 27.7236 22.497 27.2776 22.497 26.7588C22.497 26.0606 21.9297 25.4933 21.2315 25.4933C20.5382 25.4933 19.9709 26.0606 19.9709 26.7588C19.9709 27.2776 20.2909 27.7285 20.7418 27.9176C20.0436 28.0194 19.4036 28.3297 18.8946 28.8097C18.6618 28.4073 18.5406 27.9564 18.5406 27.4812C18.5406 25.9976 19.7479 24.7855 21.2364 24.7855ZM27.2097 11.4667V18.0655V23.5927C23.1079 19.9855 17.9006 19.2824 12.863 18.9382V10.5988C17.9006 10.2546 23.1079 9.55152 27.2097 5.94425V11.4667ZM27.937 17.6727V11.8594C29.3527 12.0679 30.4533 13.2994 30.4533 14.7685C30.4533 16.2376 29.3576 17.4643 27.937 17.6727Z" fill="black"/>
<path d="M6.59878 10.9576C5.99757 10.9576 5.50787 11.4473 5.50787 12.0485C5.50787 12.6497 5.99757 13.1394 6.59878 13.1394C7.19999 13.1394 7.68969 12.6497 7.68969 12.0485C7.68969 11.4473 7.19999 10.9576 6.59878 10.9576ZM6.59878 12.4073C6.39515 12.4073 6.23515 12.2473 6.23515 12.0436C6.23515 11.84 6.39999 11.68 6.59878 11.68C6.79757 11.68 6.96242 11.84 6.96242 12.0436C6.96242 12.2473 6.79757 12.4073 6.59878 12.4073Z" fill="black"/>
</svg>
