<svg width="72" height="72" viewBox="0 0 72 72" fill="none" xmlns="http://www.w3.org/2000/svg">
<path d="M72 36C72 55.883 55.883 72 36 72C25.5192 72 16.0833 67.5211 9.50484 60.3731C7.77656 58.4972 6.24656 56.4356 4.94578 54.2236C1.80281 48.877 0 42.6488 0 36C0 16.117 16.117 0 36 0C42.6502 0 48.8798 1.80281 54.2236 4.94719C56.4356 6.24797 58.4958 7.77656 60.3717 9.50625C67.5197 16.0819 72 25.5192 72 36Z" fill="#F0CD00"/>
<path d="M72 36C72 55.4344 56.603 71.2716 37.3402 71.9747C18.0774 71.2716 2.68033 55.4344 2.68033 36C2.68033 16.5656 18.0774 0.728455 37.3402 0.0253296C56.603 0.728455 72 16.5656 72 36Z" fill="#FFDE50"/>
<path d="M60.3717 9.50627L9.50484 60.3731C7.77655 58.4972 6.24655 56.4356 4.94577 54.2236L54.2236 4.9472C56.4342 6.24799 58.4944 7.77799 60.3717 9.50627Z" fill="#FFEA94"/>
<path d="M69.5165 22.8389L22.8375 69.5179C19.5328 68.2186 16.4658 66.4453 13.7222 64.2811L64.2811 13.7222C66.4453 16.4658 68.2186 19.5328 69.5165 22.8389Z" fill="#FFEA94"/>
<path d="M63.9746 36C63.9746 51.4491 51.4491 63.9745 36 63.9745C30.6197 63.9745 25.5938 62.4558 21.3286 59.8219C19.4695 58.6758 17.7567 57.316 16.2197 55.7789C15.0891 54.6511 14.0555 53.4235 13.1316 52.1142C11.8589 50.3114 10.7944 48.3511 9.97173 46.2685C8.75532 43.1902 8.07048 39.8433 8.0297 36.3431C8.02689 36.2278 8.02689 36.1139 8.02689 35.9986C8.02689 20.5495 20.551 8.02408 36.0014 8.02408C36.1167 8.02408 36.2321 8.02408 36.3474 8.02689C39.8475 8.06767 43.193 8.75392 46.2713 9.96892C48.3539 10.7916 50.3143 11.8561 52.1171 13.1288C53.4263 14.0541 54.6511 15.0877 55.7818 16.2169C57.3188 17.7525 58.6772 19.4667 59.8247 21.3258C62.4544 25.5938 63.9746 30.6197 63.9746 36Z" fill="#FAA300"/>
<path d="M55.7789 16.2197L16.2197 55.7789C15.0891 54.6511 14.0555 53.4235 13.1316 52.1142C11.8589 50.3114 10.7944 48.3511 9.97173 46.2685C8.75532 43.1902 8.07048 39.8433 8.0297 36.3431C8.02689 36.2278 8.02689 36.1139 8.02689 35.9986C8.02689 20.5496 20.5509 8.02408 36.0014 8.02408C36.1167 8.02408 36.232 8.02408 36.3473 8.02689C39.8475 8.06767 43.193 8.75392 46.2712 9.96892C48.3539 10.7916 50.3142 11.8561 52.117 13.1288C53.4234 14.0555 54.6497 15.0891 55.7789 16.2197Z" fill="#FFBD00"/>
<path d="M63.9731 36C63.9731 51.4491 51.4477 63.9746 35.9986 63.9746C35.4684 63.9746 34.9425 63.9605 34.4194 63.931C49.1344 63.1111 60.8133 50.9189 60.8133 36C60.8133 21.0811 49.1344 8.88892 34.4194 8.07048C34.9425 8.04095 35.4684 8.02689 35.9986 8.02689C51.4491 8.02548 63.9731 20.551 63.9731 36Z" fill="#F68E00"/>
<path d="M50.8332 37.2432C50.8332 38.8435 50.9119 40.3411 50.8036 41.8261C50.7403 42.6839 50.1863 43.3533 49.3861 43.8104C45.1463 46.2333 40.9177 48.676 36.6919 51.1257C35.7933 51.646 34.9144 51.5489 34.072 51.0779C32.3733 50.1272 30.7055 49.126 29.0152 48.1599C28.5539 47.8969 28.3219 47.551 28.3289 47.0068C28.3472 45.6469 28.3359 44.2857 28.3345 42.9244C28.3331 42.2058 28.5961 42.0877 29.2064 42.4744C30.105 43.0439 31.0416 43.5516 31.957 44.0972C32.5688 44.4614 32.9513 44.3672 32.9541 43.5938C32.9639 41.2397 32.9667 38.8871 32.9484 36.533C32.9428 35.806 32.5125 35.2899 31.9134 34.9383C30.1106 33.8766 28.3092 32.8107 26.4783 31.7982C25.5361 31.2779 25.0284 31.6182 25.0256 32.715C25.0144 36.6863 25.0242 40.6575 25.0144 44.6302C25.013 44.9452 25.1677 45.36 24.8527 45.5541C24.5236 45.758 24.255 45.4036 23.9794 45.2475C23.2116 44.8144 22.4705 44.3264 21.6745 43.9524C20.4975 43.3997 19.9617 42.4561 19.9547 41.2313C19.9294 36.3769 19.9378 31.5225 19.9491 26.6696C19.9519 25.6838 20.3737 24.9089 21.2555 24.3999C23.0372 23.3733 24.8175 22.3453 26.5795 21.2864C26.9241 21.0797 27.142 21.1121 27.4669 21.3075C28.665 22.0233 29.8842 22.7025 31.0992 23.3874C31.7208 23.7375 31.8431 24.0736 31.1344 24.473C30.2709 24.9582 29.4384 25.5052 28.5595 25.9594C27.7102 26.3982 27.8578 26.775 28.5511 27.1772C30.9656 28.575 33.3464 30.0418 35.8158 31.3355C37.267 32.0963 37.9238 33.0764 37.8619 34.733C37.7663 37.3402 37.8267 39.9544 37.8408 42.5644C37.8492 44.1746 38.243 44.3982 39.6295 43.605C43.2 41.5646 46.7663 39.5171 50.3353 37.4738C50.4549 37.4049 50.5842 37.3571 50.8332 37.2432Z" fill="#F68E00"/>
<path d="M37.0266 30.1992C38.6663 29.2542 40.0388 28.4935 41.3789 27.6835C42.8681 26.7835 42.847 26.2885 41.3438 25.4208C38.0067 23.4957 34.6866 21.5438 31.3242 19.6636C30.4425 19.1714 30.6675 18.9296 31.3411 18.5513C32.3002 18.0127 33.2325 17.4249 34.2 16.9017C35.0381 16.4489 35.903 16.4953 36.727 16.9678C40.9908 19.4147 45.2531 21.863 49.5085 24.3225C50.3677 24.8189 50.8289 25.605 50.843 26.5894C50.8725 28.5722 50.8374 30.5578 50.8627 32.5406C50.8697 33.0483 50.6799 33.376 50.2608 33.615C49.0824 34.2886 47.9011 34.958 46.7311 35.6457C45.9563 36.0999 45.7608 35.7511 45.7735 35.0157C45.7889 34.1339 45.7791 33.2522 45.7763 32.3705C45.772 31.0486 45.7256 31.0092 44.5275 31.6758C43.1494 32.4436 41.7867 33.2382 40.4353 34.0496C39.6928 34.4953 39.2344 34.4799 39.3919 33.4632C39.6563 31.7546 38.7535 30.7913 37.0266 30.1992Z" fill="#F68E00"/>
<path d="M52.8371 37.2432C52.8371 38.8435 52.9158 40.3411 52.8075 41.8261C52.7442 42.6839 52.1902 43.3533 51.39 43.8104C47.1502 46.2333 42.9216 48.676 38.6958 51.1257C37.7972 51.646 36.9183 51.5489 36.0759 51.0779C34.3772 50.1272 32.7094 49.126 31.0191 48.1599C30.5578 47.8969 30.3258 47.551 30.3328 47.0068C30.3511 45.6469 30.3398 44.2857 30.3384 42.9244C30.337 42.2058 30.6 42.0877 31.2103 42.4744C32.1089 43.0439 33.0455 43.5516 33.9609 44.0972C34.5727 44.4614 34.9552 44.3672 34.958 43.5938C34.9678 41.2397 34.9706 38.8871 34.9524 36.533C34.9467 35.806 34.5164 35.2899 33.9174 34.9383C32.1145 33.8766 30.3131 32.8107 28.4822 31.7982C27.54 31.2779 27.0323 31.6182 27.0295 32.715C27.0183 36.6863 27.0281 40.6575 27.0183 44.6302C27.0169 44.9452 27.1716 45.36 26.8566 45.5541C26.5275 45.758 26.2589 45.4036 25.9833 45.2475C25.2155 44.8144 24.4744 44.3264 23.6784 43.9524C22.5014 43.3997 21.9656 42.4561 21.9586 41.2313C21.9333 36.3769 21.9417 31.5225 21.953 26.6696C21.9558 25.6838 22.3777 24.9089 23.2594 24.3999C25.0411 23.3733 26.8214 22.3453 28.5834 21.2864C28.928 21.0797 29.1459 21.1121 29.4708 21.3075C30.6689 22.0233 31.8881 22.7025 33.1031 23.3874C33.7247 23.7375 33.847 24.0736 33.1383 24.473C32.2748 24.9582 31.4423 25.5052 30.5634 25.9594C29.7141 26.3982 29.8617 26.775 30.555 27.1772C32.9695 28.575 35.3503 30.0418 37.8197 31.3355C39.271 32.0963 39.9277 33.0764 39.8658 34.733C39.7702 37.3402 39.8306 39.9544 39.8447 42.5644C39.8531 44.1746 40.2469 44.3982 41.6335 43.605C45.2039 41.5646 48.7702 39.5171 52.3392 37.4738C52.4588 37.4049 52.5882 37.3571 52.8371 37.2432Z" fill="#FFEA94"/>
<path d="M39.0291 30.1992C40.6687 29.2542 42.0412 28.4935 43.3814 27.6835C44.8706 26.7835 44.8495 26.2885 43.3462 25.4208C40.0092 23.4957 36.6891 21.5438 33.3267 19.6636C32.445 19.1714 32.67 18.9296 33.3436 18.5513C34.3026 18.0127 35.235 17.4249 36.2025 16.9017C37.0406 16.4489 37.9055 16.4953 38.7295 16.9678C42.9933 19.4147 47.2556 21.863 51.5109 24.3225C52.3701 24.8189 52.8314 25.605 52.8455 26.5894C52.8736 28.5722 52.8398 30.5578 52.8651 32.5406C52.8722 33.0483 52.6823 33.376 52.2633 33.615C51.0848 34.2886 49.9036 34.958 48.7336 35.6457C47.9587 36.0999 47.7633 35.7511 47.7759 35.0157C47.7914 34.1339 47.7816 33.2522 47.7787 32.3705C47.7745 31.0486 47.7281 31.0092 46.53 31.6758C45.1519 32.4436 43.7892 33.2382 42.4378 34.0496C41.6953 34.4953 41.2369 34.4799 41.3944 33.4632C41.6601 31.7546 40.7573 30.7913 39.0291 30.1992Z" fill="#FFEA94"/>
</svg>
