<svg width="750" height="183" fill="none" xmlns="http://www.w3.org/2000/svg"><g clip-path="url(#clip0_306_187)"><path fill-rule="evenodd" clip-rule="evenodd" d="M87.651 180.685a13.251 13.251 0 01-13.965-.491l-29.668-17.055v-27.32l.018.018c-.018-1.784.987-2.293 2.724-1.311l18.37 10.557c2.213 1.274 2.816.109 2.816-1.82v-39.806h-.073c0-2.439-.585-4.714-2.962-6.425L32.448 78.357c-3.565-1.711-6.471.018-6.179 4.004l-.018-.018v70.585L6.58 141.607A13.052 13.052 0 010 130.103V52.329c-.073-4.95 2.468-9.173 6.544-11.522l30.49-17.528L60.89 37.004c1.426.82 1.298 1.93-.165 2.894L42.263 50.51c-1.261.728-1.298 2.548.2 3.422l45.134 25.955c6.087 3.495 6.544 8.645 6.544 14.561v44.939c0 3.659 2.76 5.715 5.539 4.114l62.443-35.857v22.642c0 4.824-2.65 9.047-6.562 11.304l-67.91 39.096z" fill="url(#paint0_linear_306_187)"/><path fill-rule="evenodd" clip-rule="evenodd" d="M54.821 13.069l19.67-11.303a13.252 13.252 0 0113.965.491l66.319 38.132a13.043 13.043 0 015.63 5.224 13.276 13.276 0 011.737 5.606v35.984l-23.764 13.633v-.019c-1.609.783-2.449.219-2.486-1.674V77.957c0-2.13-.951-2.585-2.34-1.784L102.55 93.992v-7.918c0-2.311 0-8.19-4.918-10.993l-7.458-4.241 26.908-15.471c2.742-2.203 2.504-5.297-.914-6.935l.092-.036-21.845-12.56.018-.018-39.612-22.75z" fill="url(#paint1_linear_306_187)"/><path d="M243.504 63.013c-2.394-4.55-5.667-8.063-9.798-10.538-4.131-2.476-8.865-3.713-14.185-3.713-4.789 0-9.085.892-12.869 2.675-3.583 1.693-6.727 3.804-9.396 6.389l-1.517-7.626h-14.258v84.199h16.598v-32.962c2.066 2.238 4.625 4.022 7.714 5.314 3.4 1.438 6.873 2.148 10.456 2.148 6.014 0 11.334-1.147 15.94-3.44 4.625-2.312 8.262-5.679 10.913-10.156 2.669-4.46 3.985-9.83 3.985-16.072 0-6.261-1.188-11.65-3.583-16.218zm-15.684 24.99a17.039 17.039 0 01-6.27 5.789c-2.559 1.401-5.429 2.075-8.555 2.075-3.656 0-6.836-.947-9.542-2.858-2.705-1.91-4.497-4.46-5.356-7.68V72.841c1.481-3.203 3.547-5.715 6.197-7.48 2.651-1.784 5.941-2.676 9.871-2.676 2.961 0 5.667.71 8.098 2.148 2.431 1.42 4.369 3.403 5.813 5.915 1.426 2.512 2.157 5.424 2.157 8.718 0 3.222-.804 6.061-2.413 8.537zm23.05-9.173c0-5.733 1.353-10.848 4.058-15.362 2.706-4.514 6.471-8.063 11.297-10.666 4.844-2.602 10.383-3.895 16.671-3.895 6.362 0 11.9 1.293 16.598 3.895 4.698 2.603 8.318 6.152 10.84 10.666 2.523 4.514 3.784 9.629 3.784 15.362 0 5.643-1.28 10.74-3.857 15.29-2.577 4.55-6.179 8.154-10.84 10.793-4.661 2.639-10.255 3.968-16.799 3.968-6.105 0-11.553-1.201-16.342-3.586-4.789-2.384-8.555-5.843-11.297-10.338-2.724-4.496-4.113-9.884-4.113-16.127zm16.744.128c0 3.04.658 5.806 1.956 8.336 1.316 2.512 3.071 4.514 5.301 5.988 2.231 1.475 4.735 2.22 7.513 2.22 4.534 0 8.171-1.583 10.913-4.75 2.742-3.167 4.113-7.098 4.113-11.776 0-4.769-1.371-8.737-4.113-11.904-2.742-3.167-6.379-4.75-10.913-4.75-2.796 0-5.301.746-7.513 2.22-2.23 1.475-3.985 3.477-5.301 5.989-1.316 2.493-1.956 5.314-1.956 8.427zm50.435-.128c0-5.733 1.353-10.848 4.058-15.362 2.706-4.514 6.471-8.063 11.297-10.666 4.844-2.602 10.383-3.895 16.671-3.895 6.362 0 11.901 1.293 16.598 3.895 4.698 2.603 8.318 6.152 10.84 10.666 2.523 4.514 3.784 9.629 3.784 15.362 0 5.643-1.279 10.74-3.857 15.29-2.577 4.55-6.178 8.154-10.84 10.793-4.661 2.639-10.255 3.968-16.799 3.968-6.105 0-11.553-1.201-16.342-3.586-4.789-2.384-8.555-5.843-11.297-10.338-2.742-4.496-4.113-9.884-4.113-16.127zm16.745.128c0 3.04.658 5.806 1.956 8.336 1.316 2.512 3.071 4.514 5.301 5.988 2.23 1.475 4.734 2.22 7.513 2.22 4.533 0 8.171-1.583 10.913-4.75 2.742-3.167 4.113-7.098 4.113-11.776 0-4.769-1.371-8.737-4.113-11.904-2.742-3.167-6.38-4.75-10.913-4.75-2.797 0-5.302.746-7.513 2.22-2.23 1.475-3.985 3.477-5.301 5.989-1.317 2.493-1.956 5.314-1.956 8.427zm54.893-73.661h16.598V107.46h-16.598V5.297zm73.96 46.067l-1.115 6.59c-1.791-2.33-4.131-4.423-7.056-6.262-3.089-1.947-7.385-2.93-12.869-2.93-4.881 0-9.469 1.274-13.728 3.786-4.259 2.511-7.696 6.042-10.255 10.611-2.577 4.55-3.857 9.993-3.857 16.327 0 6.68 1.243 12.195 3.729 16.526 2.486 4.332 5.868 7.572 10.127 9.702 4.259 2.129 9.03 3.185 14.258 3.185 3.309 0 6.215-.473 8.756-1.42 2.523-.964 4.662-2.111 6.398-3.458 1.737-1.347 3.09-2.584 4.058-3.713.147-.164.275-.31.384-.455v7.608h16.598V51.365h-15.428zm-6.8 41.518c-2.541 1.729-5.612 2.603-9.286 2.603-2.87 0-5.521-.747-7.97-2.22-2.431-1.475-4.369-3.496-5.813-6.044-1.426-2.548-2.157-5.406-2.157-8.518 0-3.203.695-6.043 2.084-8.518 1.389-2.476 3.272-4.423 5.612-5.861a14.713 14.713 0 017.714-2.148c3.656 0 6.873.947 9.67 2.858 2.778 1.91 4.716 4.386 5.758 7.408v13.014c-1.206 3.221-3.071 5.697-5.612 7.426zm97.047-29.869c-2.395-4.55-5.667-8.063-9.798-10.538-4.131-2.476-8.865-3.713-14.185-3.713-4.789 0-9.085.892-12.869 2.675-3.583 1.693-6.709 3.804-9.396 6.389l-1.517-7.626h-14.24v84.199h16.598v-32.981c2.066 2.257 4.643 4.023 7.714 5.315 3.4 1.438 6.873 2.148 10.456 2.148 6.014 0 11.334-1.147 15.94-3.44 4.625-2.312 8.244-5.679 10.913-10.157 2.651-4.459 3.985-9.828 3.985-16.071 0-6.243-1.206-11.631-3.601-16.2zm-15.684 24.99a17.046 17.046 0 01-6.27 5.789c-2.577 1.401-5.429 2.075-8.555 2.075-3.656 0-6.836-.947-9.542-2.858-2.705-1.91-4.478-4.46-5.356-7.68V72.841c1.481-3.203 3.546-5.715 6.197-7.48 2.669-1.784 5.959-2.676 9.871-2.676 2.961 0 5.667.71 8.098 2.148 2.431 1.42 4.387 3.403 5.813 5.915 1.444 2.512 2.157 5.424 2.157 8.718 0 3.222-.804 6.061-2.413 8.537zm71.95-36.639l-1.115 6.59c-1.792-2.33-4.132-4.423-7.038-6.262-3.089-1.947-7.385-2.93-12.869-2.93-4.881 0-9.451 1.274-13.728 3.786-4.278 2.511-7.696 6.042-10.255 10.611-2.578 4.55-3.857 9.993-3.857 16.327 0 6.68 1.243 12.195 3.729 16.526 2.486 4.332 5.849 7.572 10.127 9.702 4.259 2.129 9.012 3.185 14.24 3.185 3.308 0 6.233-.473 8.756-1.42 2.541-.964 4.661-2.111 6.416-3.458 1.737-1.347 3.089-2.584 4.04-3.713a7.54 7.54 0 00.384-.455v7.608h16.598V51.365H610.16zm-6.8 41.518c-2.523 1.729-5.612 2.603-9.268 2.603-2.87 0-5.539-.747-7.97-2.22-2.45-1.475-4.387-3.496-5.813-6.044-1.444-2.548-2.157-5.406-2.157-8.518 0-3.203.694-6.043 2.084-8.518 1.389-2.476 3.272-4.423 5.612-5.861 2.358-1.42 4.917-2.148 7.714-2.148 3.656 0 6.873.947 9.67 2.858 2.796 1.91 4.716 4.386 5.758 7.408v13.014c-1.225 3.221-3.09 5.697-5.63 7.426zm82.349 9.501c-2.522 2.002-5.611 3.585-9.286 4.75-3.656 1.165-7.312 1.766-10.986 1.766-6.27 0-11.79-1.165-16.525-3.513-4.752-2.348-8.427-5.734-11.041-10.156-2.614-4.423-3.912-9.72-3.912-15.872 0-6.152 1.39-11.43 4.187-15.817 2.778-4.387 6.471-7.736 11.041-10.084 4.569-2.348 9.432-3.513 14.568-3.513 4.973 0 9.287.674 12.943 2.02 3.656 1.348 6.8 3.095 9.414 5.28l-8.098 10.665c-1.298-1.037-3.053-2.056-5.228-3.058-2.176-1-4.662-1.492-7.458-1.492-2.797 0-5.302.691-7.513 2.075-2.231 1.383-3.985 3.294-5.302 5.733-1.297 2.44-1.955 5.17-1.955 8.19 0 2.95.676 5.662 2.029 8.137 1.352 2.475 3.272 4.423 5.758 5.86 2.486 1.439 5.337 2.148 8.555 2.148 2.083 0 4.021-.309 5.813-.91 1.791-.6 3.326-1.474 4.643-2.602l8.353 10.393zM750 107.461h-19.34l-14.606-24.335-5.776 4.423v19.912H693.68V5.297h16.598v65.288l27.438-20.513 10.072 8.846-20.199 15.398L750 107.461z" fill="#F9BE00"/></g><defs><linearGradient id="paint0_linear_306_187" x1="18.186" y1="153.802" x2="112.929" y2="58.652" gradientUnits="userSpaceOnUse"><stop stop-color="#4B1412"/><stop offset=".198" stop-color="#4F1412"/><stop offset=".397" stop-color="#5B1413"/><stop offset=".596" stop-color="#6F1314"/><stop offset=".687" stop-color="#7B1315"/><stop offset=".722" stop-color="#7E181A"/><stop offset=".763" stop-color="#862729"/><stop offset=".809" stop-color="#934041"/><stop offset=".858" stop-color="#A56263"/><stop offset=".908" stop-color="#BC8E8F"/><stop offset=".96" stop-color="#D8C4C4"/><stop offset="1" stop-color="#F1F2F2"/></linearGradient><linearGradient id="paint1_linear_306_187" x1="87.923" y1="85.585" x2="124.076" y2="22.696" gradientUnits="userSpaceOnUse"><stop stop-color="#FFF9DF"/><stop offset=".038" stop-color="#FFF7D8"/><stop offset=".333" stop-color="#FFEBA4"/><stop offset=".554" stop-color="#FFE483"/><stop offset=".676" stop-color="#FFE177"/><stop offset=".943" stop-color="#FEBA43"/><stop offset="1" stop-color="#FEB137"/></linearGradient><clipPath id="clip0_306_187"><path fill="#fff" d="M0 0h750v182.432H0z"/></clipPath></defs></svg>